<?xml version="1.0" standalone="no"?>
<!DOCTYPE svg PUBLIC "-//W3C//DTD SVG 20010904//EN"
 "http://www.w3.org/TR/2001/REC-SVG-20010904/DTD/svg10.dtd">
<svg version="1.0" xmlns="http://www.w3.org/2000/svg"
 width="920.000000pt" height="980.000000pt" viewBox="0 0 920.000000 980.000000"
 preserveAspectRatio="xMidYMid meet">
<metadata>
Created by potrace 1.16, written by Peter Selinger 2001-2019
</metadata>
<g transform="translate(0.000000,980.000000) scale(0.100000,-0.100000)"
fill="#000000" stroke="none">
<path d="M4480 9784 c-107 -23 -203 -77 -291 -163 -70 -69 -3199 -3861 -3281
-3976 -215 -302 -220 -765 -13 -1085 118 -183 282 -289 479 -310 50 -5 286 -8
524 -7 l432 2 0 -1730 c0 -1870 -1 -1833 53 -1990 93 -270 286 -462 513 -510
104 -22 3304 -22 3409 0 219 46 418 240 507 495 55 159 51 36 57 1960 l6 1775
485 0 c532 0 544 1 665 60 137 67 252 185 328 339 75 153 101 267 100 456 0
203 -48 372 -146 521 -23 35 -622 768 -1331 1629 -710 861 -1433 1739 -1609
1953 -175 213 -347 412 -380 443 -74 66 -177 119 -272 139 -86 18 -150 18
-235 -1z m210 -574 c31 -16 295 -331 1232 -1467 656 -797 1383 -1680 1617
-1963 233 -283 430 -530 438 -548 53 -126 28 -276 -59 -359 -68 -66 -36 -63
-803 -63 l-695 0 0 -1993 c0 -2201 4 -2062 -63 -2156 -18 -24 -52 -55 -76 -68
l-44 -23 -1648 2 -1647 3 -44 30 c-31 22 -53 50 -78 99 l-35 69 -3 2018 -2
2019 -698 0 c-653 0 -700 2 -737 19 -46 21 -101 79 -122 129 -37 89 -34 218 7
288 10 18 743 912 1630 1988 1188 1443 1621 1961 1648 1976 50 26 131 26 182
0z"/>
</g>
</svg>
